<svg width="64" height="64" viewBox="0 0 64 64" fill="none" xmlns="http://www.w3.org/2000/svg">
<path d="M41.71 10.58H28L20.6 32.86C20.5954 32.8746 20.5942 32.89 20.5965 32.9051C20.5987 32.9201 20.6044 32.9345 20.6131 32.9471C20.6218 32.9596 20.6332 32.97 20.6466 32.9774C20.6599 32.9849 20.6747 32.9892 20.69 32.99H29.18C29.1961 32.9893 29.2121 32.9924 29.2267 32.9992C29.2413 33.006 29.2541 33.0162 29.2639 33.0289C29.2737 33.0417 29.2803 33.0566 29.2831 33.0725C29.2859 33.0883 29.2848 33.1046 29.28 33.12L22.71 52.76C22.6724 52.8734 22.6766 52.9965 22.7219 53.107C22.7672 53.2175 22.8506 53.3081 22.9569 53.3625C23.0633 53.4169 23.1856 53.4314 23.3017 53.4034C23.4178 53.3755 23.5201 53.3068 23.59 53.21L43.41 26C43.4211 25.9851 43.4279 25.9675 43.4296 25.949C43.4313 25.9305 43.4277 25.9119 43.4194 25.8953C43.4111 25.8787 43.3984 25.8647 43.3826 25.8549C43.3668 25.8452 43.3486 25.84 43.33 25.84H34.42C34.4032 25.8381 34.387 25.8324 34.3728 25.8232C34.3585 25.8141 34.3466 25.8018 34.3379 25.7873C34.3292 25.7728 34.3239 25.7564 34.3225 25.7396C34.3212 25.7227 34.3237 25.7057 34.33 25.69L41.8 10.69C41.8014 10.6769 41.8001 10.6636 41.7963 10.6509C41.7926 10.6382 41.7863 10.6265 41.7779 10.6162C41.7696 10.606 41.7592 10.5975 41.7476 10.5913C41.7359 10.5851 41.7231 10.5813 41.71 10.58Z" stroke="white" stroke-width="3"/>
</svg>
