<svg width="64" height="64" viewBox="0 0 64 64" fill="none" xmlns="http://www.w3.org/2000/svg">
<path d="M37.49 19.86C37.49 19.79 37.85 19.56 39 19.56H42.76C43.0536 19.564 43.345 19.5094 43.6173 19.3995C43.8895 19.2896 44.1372 19.1266 44.3457 18.9199C44.5542 18.7132 44.7195 18.467 44.8319 18.1958C44.9442 17.9245 45.0014 17.6336 45 17.34V10.78C45.0053 10.4876 44.9528 10.1971 44.8455 9.92504C44.7381 9.65302 44.5781 9.40489 44.3746 9.19488C44.1711 8.98488 43.9282 8.81716 43.6597 8.70133C43.3911 8.58551 43.1024 8.52388 42.81 8.51998H37.21C35.6559 8.46671 34.1072 8.73001 32.658 9.29386C31.2088 9.85772 29.8894 10.7104 28.78 11.8C27.7055 12.9591 26.8705 14.319 26.3231 15.8017C25.7757 17.2845 25.5265 18.8607 25.59 20.44V26.39H21.24C20.9472 26.3887 20.6569 26.445 20.3859 26.5559C20.1148 26.6667 19.8682 26.8299 19.6602 27.036C19.4522 27.2422 19.2868 27.4873 19.1736 27.7573C19.0603 28.0274 19.0013 28.3171 19 28.61V35.68C19 36.2661 19.2328 36.8282 19.6473 37.2427C20.0617 37.6571 20.6239 37.89 21.21 37.89H25.49V53.24C25.482 53.8271 25.7068 54.3934 26.1154 54.8151C26.524 55.2368 27.0829 55.4795 27.67 55.49H35.02C35.3111 55.49 35.5993 55.4325 35.868 55.3208C36.1368 55.2091 36.3809 55.0454 36.5863 54.8392C36.7916 54.6329 36.9542 54.3881 37.0647 54.1188C37.1751 53.8495 37.2313 53.561 37.23 53.27V37.94H42.46C43.048 37.9373 43.6111 37.7026 44.0269 37.2868C44.4426 36.8711 44.6774 36.3079 44.68 35.72V28.64C44.68 28.3489 44.6225 28.0607 44.5108 27.7919C44.3991 27.5231 44.2355 27.2791 44.0292 27.0737C43.8229 26.8684 43.5781 26.7058 43.3088 26.5953C43.0395 26.4848 42.7511 26.4287 42.46 26.43H37.26V21.22C37.2043 20.754 37.2841 20.2818 37.49 19.86Z" stroke="black" stroke-width="3" stroke-linecap="round"/>
</svg>
