<svg width="64" height="64" viewBox="0 0 64 64" fill="none" xmlns="http://www.w3.org/2000/svg">
<path d="M23.07 20.23C31.4757 20.23 38.29 17.884 38.29 14.99C38.29 12.096 31.4757 9.75 23.07 9.75C14.6642 9.75 7.84998 12.096 7.84998 14.99C7.84998 17.884 14.6642 20.23 23.07 20.23Z" stroke="white" stroke-width="3" stroke-linecap="round"/>
<path d="M38.3 21.8C38.3 24.69 31.48 27.04 23.07 27.04C14.66 27.04 7.84998 24.69 7.84998 21.8" stroke="white" stroke-width="3" stroke-linecap="round"/>
<path d="M27.38 33.43C26.98 33.43 23.48 33.43 23.07 33.43C14.66 33.43 7.84998 31.08 7.84998 28.19" stroke="white" stroke-width="3" stroke-linecap="round"/>
<path d="M24.91 40C24.31 40 23.69 40 23.07 40C14.66 40 7.84998 37.66 7.84998 34.76" stroke="white" stroke-width="3" stroke-linecap="round"/>
<path d="M25.7 46.53C24.8256 46.608 23.9475 46.6347 23.07 46.61C14.66 46.61 7.84998 44.26 7.84998 41.37" stroke="white" stroke-width="3" stroke-linecap="round"/>
<path d="M7.84998 41.42V15.01" stroke="white" stroke-width="3" stroke-linecap="round"/>
<path d="M38.3 30.01V14.99" stroke="white" stroke-width="3" stroke-linecap="round"/>
<path d="M40.93 41.06C49.3357 41.06 56.15 38.714 56.15 35.82C56.15 32.926 49.3357 30.58 40.93 30.58C32.5242 30.58 25.71 32.926 25.71 35.82C25.71 38.714 32.5242 41.06 40.93 41.06Z" stroke="white" stroke-width="3" stroke-linecap="round"/>
<path d="M56.15 42.63C56.15 45.53 49.34 47.87 40.93 47.87C32.52 47.87 25.7 45.53 25.7 42.63" stroke="white" stroke-width="3" stroke-linecap="round"/>
<path d="M56.15 49C56.15 51.9 49.34 54.25 40.93 54.25C32.52 54.25 25.7 51.91 25.7 49" stroke="white" stroke-width="3" stroke-linecap="round"/>
<path d="M25.7 48.92V35.07" stroke="white" stroke-width="3" stroke-linecap="round"/>
<path d="M56.15 49.21V35.64" stroke="white" stroke-width="3" stroke-linecap="round"/>
</svg>
