<svg width="64" height="64" viewBox="0 0 64 64" fill="none" xmlns="http://www.w3.org/2000/svg">
<path d="M39.67 13.02H24.33C18.5144 13.02 13.8 17.7345 13.8 23.55V40.46C13.8 46.2756 18.5144 50.99 24.33 50.99H39.67C45.4855 50.99 50.2 46.2756 50.2 40.46V23.55C50.2 17.7345 45.4855 13.02 39.67 13.02Z" stroke="black" stroke-width="3" stroke-linecap="round"/>
<path d="M32 41.28C37.1252 41.28 41.28 37.1252 41.28 32C41.28 26.8748 37.1252 22.72 32 22.72C26.8748 22.72 22.72 26.8748 22.72 32C22.72 37.1252 26.8748 41.28 32 41.28Z" stroke="black" stroke-width="3" stroke-linecap="round"/>
<path d="M43.11 21.06C43.839 21.06 44.43 20.4691 44.43 19.74C44.43 19.011 43.839 18.42 43.11 18.42C42.381 18.42 41.79 19.011 41.79 19.74C41.79 20.4691 42.381 21.06 43.11 21.06Z" stroke="black" stroke-width="3"/>
</svg>
