<svg width="64" height="64" viewBox="0 0 64 64" fill="none" xmlns="http://www.w3.org/2000/svg">
<path d="M31.74 7.19L13.36 14.85C13.1758 14.9257 13.0184 15.0546 12.9079 15.2203C12.7975 15.386 12.739 15.5809 12.74 15.78V32.11C12.7407 36.0773 13.7725 39.9763 15.7342 43.4246C17.6959 46.8729 20.5201 49.7522 23.93 51.78L32.11 56.64L40.17 51.79C43.5524 49.7574 46.3514 46.8841 48.2947 43.4496C50.238 40.0151 51.2595 36.1362 51.26 32.19V14.84C51.2607 14.6357 51.1987 14.4361 51.0825 14.268C50.9663 14.0999 50.8014 13.9715 50.61 13.9L32.48 7.18C32.2411 7.08858 31.9763 7.09216 31.74 7.19Z" stroke="white" stroke-width="3"/>
<path d="M22.01 33.5L29.44 39.12L42.56 20.69" stroke="white" stroke-width="3"/>
</svg>
