<svg width="64" height="64" viewBox="0 0 64 64" fill="none" xmlns="http://www.w3.org/2000/svg">
<path d="M54.49 12.3C54.49 12.2 54.4 12.14 54.32 12.21C52.75 13.57 48.96 14.67 48.48 14.72C48.4659 14.7264 48.4505 14.7296 48.435 14.7296C48.4195 14.7296 48.4042 14.7264 48.39 14.72C45.61 10.28 39.2 11.48 39.2 11.48C29.78 13.48 30.82 23 31 24C31 24.05 31 24.09 30.91 24.09C20.43 24.61 11.28 14.87 10.24 13.72C10.2297 13.7075 10.2167 13.6973 10.202 13.6904C10.1873 13.6834 10.1713 13.6798 10.155 13.6798C10.1388 13.6798 10.1227 13.6834 10.108 13.6904C10.0933 13.6973 10.0803 13.7075 10.07 13.72C8.89394 15.9003 8.52101 18.4243 9.01632 20.8515C9.51163 23.2787 10.8437 25.4549 12.78 27C12.7966 27.0097 12.8104 27.0236 12.8199 27.0402C12.8295 27.0569 12.8346 27.0758 12.8346 27.095C12.8346 27.1142 12.8295 27.1331 12.8199 27.1498C12.8104 27.1665 12.7966 27.1803 12.78 27.19C11.4143 27.1473 10.064 26.8874 8.78001 26.42C8.72001 26.42 8.65001 26.42 8.65001 26.52C8.79001 32.72 14.87 35.52 16.28 36.11C16.3 36.1166 16.3174 36.1293 16.3298 36.1464C16.3421 36.1634 16.3488 36.184 16.3488 36.205C16.3488 36.2261 16.3421 36.2466 16.3298 36.2637C16.3174 36.2807 16.3 36.2934 16.28 36.3C15.0164 36.5753 13.7196 36.6663 12.43 36.57C12.4127 36.5694 12.3954 36.5728 12.3796 36.5801C12.3639 36.5874 12.3501 36.5983 12.3393 36.612C12.3286 36.6256 12.3212 36.6416 12.3179 36.6587C12.3145 36.6757 12.3153 36.6933 12.32 36.71C13.59 41.49 19.82 43.49 20.94 43.82C20.9588 43.824 20.9762 43.8328 20.9905 43.8456C21.0048 43.8584 21.0155 43.8746 21.0215 43.8928C21.0276 43.911 21.0288 43.9305 21.025 43.9493C21.0213 43.9681 21.0126 43.9856 21 44C17.15 47.44 9.56001 48.35 8.00001 48.51C7.97928 48.5128 7.95976 48.5214 7.94375 48.5348C7.92773 48.5483 7.91588 48.566 7.90959 48.5859C7.90329 48.6059 7.90281 48.6272 7.90819 48.6474C7.91358 48.6676 7.92462 48.6859 7.94001 48.7C13.76 52.7 29 56.02 40.64 46.07C44.0812 43.0709 46.8003 39.3331 48.5942 35.1357C50.3882 30.9383 51.2106 26.3898 51 21.83C51.0001 21.8134 51.0049 21.7971 51.0137 21.7829C51.0225 21.7688 51.0351 21.7574 51.05 21.75C53.1404 20.5223 54.8822 18.7804 56.11 16.69C56.11 16.59 56.11 16.53 55.96 16.56C54.9477 16.9157 53.8548 16.9747 52.81 16.73C52.81 16.73 54.52 13.77 54.49 12.3Z" stroke="black" stroke-width="3" stroke-linecap="round"/>
</svg>
